<svg preserveAspectRatio="none" width="100%" height="100%" overflow="visible" style="display: block;" viewBox="0 0 145 145" fill="none" xmlns="http://www.w3.org/2000/svg">
<path fill-rule="evenodd" clip-rule="evenodd" d="M126.875 0C136.885 0 145 8.11484 145 18.125V126.875C145 136.885 136.885 145 126.875 145H18.125C8.11484 145 0 136.885 0 126.875V18.125C0 8.11484 8.11484 0 18.125 0H126.875ZM60.2625 94.1584V111.016H80.9253V94.1584H60.2625ZM73.531 33.8029C63.381 33.8029 55.0794 35.9418 48.6269 40.2193C42.1745 44.4968 39.167 51.4206 39.602 60.9904H58.1982C57.8358 57.6555 59.0679 55.0094 61.8954 53.0519C64.7953 51.0946 68.6738 50.1159 73.531 50.1159C77.736 50.1159 80.9993 50.659 83.3192 51.7465C85.7111 52.7614 86.9076 54.2478 86.908 56.2048C86.908 57.4368 86.6899 58.3799 86.2553 59.0324C85.8203 59.6849 84.9854 60.3739 83.7529 61.0989C82.593 61.7513 80.5274 62.7302 77.5556 64.0349C72.6985 66.1372 69.1095 68.2045 66.7895 70.2344C64.4695 72.1919 62.9815 74.2589 62.329 76.4339C61.6767 78.6088 61.3511 81.4731 61.3511 85.0251H79.9474C79.9474 83.7202 80.6366 82.4879 82.0139 81.328C83.3913 80.0955 86.0736 78.4638 90.0608 76.4339C93.8305 74.4765 96.7664 72.6629 98.8689 70.9955C101.044 69.2555 102.675 67.1885 103.763 64.796C104.85 62.4037 105.396 59.3956 105.396 55.7711C105.396 50.2612 103.728 45.8735 100.393 42.611C97.0586 39.3488 92.9979 37.0661 88.2133 35.761C83.4284 34.456 78.5335 33.803 73.531 33.8029Z" fill="currentColor"/>
</svg>
