<svg width="32" height="48" viewBox="0 0 32 48" fill="none" xmlns="http://www.w3.org/2000/svg">
<path d="M15.75 48C7.05152 48 -3.08232e-07 40.9485 -6.88454e-07 32.25L-1.40969e-06 15.75C-1.78992e-06 7.05152 7.05151 -3.08232e-07 15.75 -6.88454e-07C24.4485 -1.06868e-06 31.5 7.05151 31.5 15.75L29.25 15.75C29.25 8.67302 23.8044 2.86857 16.875 2.29687L16.875 11.0006C19.1295 11.5122 20.8125 13.5282 20.8125 15.9375L20.8125 16.875L29.25 16.875L29.25 15.75L31.5 15.75L31.5 32.25L29.25 32.25L29.25 19.125L20.8125 19.125L20.8125 19.9105C20.8124 22.7904 18.4779 25.1249 15.598 25.125C12.8861 25.125 10.6875 22.9264 10.6875 20.2145L10.6875 19.125L2.25 19.125L2.25 32.25C2.25 39.7058 8.29416 45.75 15.75 45.75C23.2058 45.75 29.25 39.7058 29.25 32.25L31.5 32.25C31.5 40.9485 24.4485 48 15.75 48ZM15.598 22.875C17.2352 22.8749 18.5624 21.5477 18.5625 19.9105L18.5625 15.9375C18.5625 14.3842 17.3033 13.125 15.75 13.125C14.1967 13.125 12.9375 14.3842 12.9375 15.9375L12.9375 20.2145C12.9375 21.6838 14.1287 22.875 15.598 22.875ZM10.6875 16.875L10.6875 15.9375C10.6875 13.5282 12.3705 11.5122 14.625 11.0006L14.625 2.29687C7.69555 2.86857 2.25 8.67302 2.25 15.75L2.25 16.875L10.6875 16.875Z" fill="black"/>
</svg>
