<svg width="224" height="223" viewBox="0 0 224 223" fill="none" xmlns="http://www.w3.org/2000/svg">
<path opacity="0.3" d="M81.2125 222.5L76.7625 186.9C74.3521 185.973 72.0807 184.86 69.9484 183.562C67.8161 182.265 65.7302 180.874 63.6906 179.391L30.5938 193.297L0 140.453L28.6469 118.759C28.4615 117.461 28.3687 116.21 28.3687 115.005V107.495C28.3687 106.29 28.4615 105.039 28.6469 103.741L0 82.0469L30.5938 29.2031L63.6906 43.1094C65.7302 41.626 67.8625 40.2354 70.0875 38.9375C72.3125 37.6396 74.5375 36.5271 76.7625 35.6L81.2125 0H142.4L146.85 35.6C149.26 36.5271 151.532 37.6396 153.664 38.9375C155.796 40.2354 157.882 41.626 159.922 43.1094L193.019 29.2031L223.613 82.0469L194.966 103.741C195.151 105.039 195.244 106.29 195.244 107.495V115.005C195.244 116.21 195.058 117.461 194.688 118.759L223.334 140.453L192.741 193.297L159.922 179.391C157.882 180.874 155.75 182.265 153.525 183.562C151.3 184.86 149.075 185.973 146.85 186.9L142.4 222.5H81.2125ZM112.363 150.188C123.117 150.188 132.295 146.386 139.897 138.784C147.499 131.182 151.3 122.004 151.3 111.25C151.3 100.496 147.499 91.3177 139.897 83.7156C132.295 76.1135 123.117 72.3125 112.363 72.3125C101.423 72.3125 92.1984 76.1135 84.6891 83.7156C77.1797 91.3177 73.425 100.496 73.425 111.25C73.425 122.004 77.1797 131.182 84.6891 138.784C92.1984 146.386 101.423 150.188 112.363 150.188Z" fill="black"/>
</svg>