<svg preserveAspectRatio="none" width="100%" height="100%" overflow="visible" style="display: block;" viewBox="0 0 74 48" fill="none" xmlns="http://www.w3.org/2000/svg">
<g id="Vector">
<path d="M3.7 44.3077H18.5V29.5385H3.7V44.3077ZM22.2 45.5385C22.2 46.8554 21.1637 47.931 19.8604 47.997L19.7333 48H2.46667L2.3396 47.997C1.07843 47.9331 0.0670021 46.9238 0.00301107 45.6653L0 45.5385V28.3077C0 26.9482 1.10436 25.8462 2.46667 25.8462H19.7333C21.0956 25.8462 22.2 26.9482 22.2 28.3077V45.5385Z" fill="black"/>
<path d="M6.99151 41.8462L10.3585 33.2308H11.8632L15.2055 41.8462H13.5405L11.6905 36.9477C11.6494 36.8492 11.5918 36.6933 11.5178 36.48C11.4521 36.2667 11.3781 36.0369 11.2958 35.7908C11.2136 35.5364 11.1396 35.3026 11.0738 35.0892C11.0081 34.8677 10.9587 34.7077 10.9258 34.6092L11.2342 34.5969C11.1848 34.761 11.1273 34.9456 11.0615 35.1508C10.9957 35.3559 10.9258 35.5692 10.8518 35.7908C10.7778 36.0123 10.7038 36.2256 10.6298 36.4308C10.5641 36.6359 10.5024 36.8205 10.4448 36.9846L8.59484 41.8462H6.99151ZM8.52084 39.8769L9.07584 38.4862H13.0102L13.6022 39.8769H8.52084Z" fill="var(--fill-0, black)"/>
<path d="M6.99151 41.8462L10.3585 33.2308H11.8632L15.2055 41.8462H13.5405L11.6905 36.9477C11.6494 36.8492 11.5918 36.6933 11.5178 36.48C11.4521 36.2667 11.3781 36.0369 11.2958 35.7908C11.2136 35.5364 11.1396 35.3026 11.0738 35.0892C11.0081 34.8677 10.9587 34.7077 10.9258 34.6092L11.2342 34.5969C11.1848 34.761 11.1273 34.9456 11.0615 35.1508C10.9957 35.3559 10.9258 35.5692 10.8518 35.7908C10.7778 36.0123 10.7038 36.2256 10.6298 36.4308C10.5641 36.6359 10.5024 36.8205 10.4448 36.9846L8.59484 41.8462H6.99151ZM8.52084 39.8769L9.07584 38.4862H13.0102L13.6022 39.8769H8.52084Z" fill="var(--fill-1, black)"/>
<path d="M29.6 18.4615H44.4V3.69231H29.6V18.4615ZM48.1 19.6923C48.1 21.0093 47.0637 22.0849 45.7604 22.1508L45.6333 22.1538H28.3667L28.2396 22.1508C26.9784 22.087 25.967 21.0777 25.903 19.8191L25.9 19.6923V2.46154C25.9 1.10207 27.0044 9.91163e-09 28.3667 0H45.6333C46.9956 0 48.1 1.10207 48.1 2.46154V19.6923Z" fill="black"/>
<path d="M33.7618 16L31.0731 7.38462H32.7504L34.2798 12.4677C34.3291 12.6236 34.3743 12.7959 34.4154 12.9846C34.4566 13.1733 34.4936 13.3621 34.5264 13.5508C34.5593 13.7313 34.5881 13.8995 34.6128 14.0554C34.6374 14.2113 34.6621 14.3426 34.6868 14.4492L34.3538 14.4369C34.4524 14.0513 34.5306 13.7395 34.5881 13.5015C34.6457 13.2636 34.695 13.0667 34.7361 12.9108C34.7854 12.7467 34.8348 12.5949 34.8841 12.4554L36.3394 8.73846H37.7084L39.1268 12.4554C39.209 12.6851 39.283 12.9067 39.3488 13.12C39.4146 13.3251 39.468 13.5303 39.5091 13.7354C39.5584 13.9323 39.6037 14.1374 39.6448 14.3508L39.3488 14.4123C39.3817 14.2154 39.4063 14.0554 39.4228 13.9323C39.4392 13.8092 39.4557 13.6985 39.4721 13.6C39.4886 13.5015 39.505 13.4072 39.5214 13.3169C39.5379 13.2185 39.5626 13.1036 39.5954 12.9723C39.6366 12.8328 39.6859 12.6564 39.7434 12.4431L41.2604 7.38462H42.9254L40.2244 16H39.0651L36.8698 10.7569L37.0178 10.8062L34.9334 16H33.7618Z" fill="var(--fill-0, black)"/>
<path d="M33.7618 16L31.0731 7.38462H32.7504L34.2798 12.4677C34.3291 12.6236 34.3743 12.7959 34.4154 12.9846C34.4566 13.1733 34.4936 13.3621 34.5264 13.5508C34.5593 13.7313 34.5881 13.8995 34.6128 14.0554C34.6374 14.2113 34.6621 14.3426 34.6868 14.4492L34.3538 14.4369C34.4524 14.0513 34.5306 13.7395 34.5881 13.5015C34.6457 13.2636 34.695 13.0667 34.7361 12.9108C34.7854 12.7467 34.8348 12.5949 34.8841 12.4554L36.3394 8.73846H37.7084L39.1268 12.4554C39.209 12.6851 39.283 12.9067 39.3488 13.12C39.4146 13.3251 39.468 13.5303 39.5091 13.7354C39.5584 13.9323 39.6037 14.1374 39.6448 14.3508L39.3488 14.4123C39.3817 14.2154 39.4063 14.0554 39.4228 13.9323C39.4392 13.8092 39.4557 13.6985 39.4721 13.6C39.4886 13.5015 39.505 13.4072 39.5214 13.3169C39.5379 13.2185 39.5626 13.1036 39.5954 12.9723C39.6366 12.8328 39.6859 12.6564 39.7434 12.4431L41.2604 7.38462H42.9254L40.2244 16H39.0651L36.8698 10.7569L37.0178 10.8062L34.9334 16H33.7618Z" fill="var(--fill-1, black)"/>
<path d="M29.6 44.3077H44.4V29.5385H29.6V44.3077ZM48.1 45.5385C48.1 46.8554 47.0637 47.931 45.7604 47.997L45.6333 48H28.3667L28.2396 47.997C26.9784 47.9331 25.967 46.9238 25.903 45.6653L25.9 45.5385V28.3077C25.9 26.9482 27.0044 25.8462 28.3667 25.8462H45.6333C46.9956 25.8462 48.1 26.9482 48.1 28.3077V45.5385Z" fill="black"/>
<path d="M37.0311 41.9692C36.5296 41.9692 36.0691 41.9077 35.6498 41.7846C35.2305 41.6533 34.8522 41.4605 34.5151 41.2062C34.178 40.9518 33.8779 40.6441 33.6148 40.2831L34.6631 39.1015C35.066 39.6595 35.4607 40.0451 35.8471 40.2585C36.2336 40.4718 36.6693 40.5785 37.1545 40.5785C37.434 40.5785 37.6889 40.5374 37.9191 40.4554C38.1493 40.3651 38.3302 40.2462 38.4618 40.0985C38.5933 39.9426 38.6591 39.7662 38.6591 39.5692C38.6591 39.4297 38.6303 39.3026 38.5728 39.1877C38.5235 39.0646 38.4453 38.958 38.3385 38.8677C38.2316 38.7692 38.1 38.679 37.9438 38.5969C37.7876 38.5149 37.6108 38.4451 37.4135 38.3877C37.2161 38.3303 36.9982 38.2769 36.7598 38.2277C36.3076 38.1374 35.9129 38.0185 35.5758 37.8708C35.2387 37.7149 34.955 37.5262 34.7248 37.3046C34.4946 37.0749 34.326 36.8205 34.2191 36.5415C34.1122 36.2544 34.0588 35.9303 34.0588 35.5692C34.0588 35.2082 34.1369 34.8759 34.2931 34.5723C34.4576 34.2687 34.6796 34.0062 34.9591 33.7846C35.2387 33.5631 35.5635 33.3908 35.9335 33.2677C36.3035 33.1446 36.7022 33.0831 37.1298 33.0831C37.6149 33.0831 38.0466 33.1405 38.4248 33.2554C38.8112 33.3703 39.1483 33.5426 39.4361 33.7723C39.7321 33.9938 39.9747 34.2646 40.1638 34.5846L39.1031 35.6308C38.9387 35.3764 38.7537 35.1672 38.5481 35.0031C38.3426 34.8308 38.1206 34.7036 37.8821 34.6215C37.6437 34.5313 37.3929 34.4862 37.1298 34.4862C36.8338 34.4862 36.5748 34.5272 36.3528 34.6092C36.139 34.6913 35.9705 34.8103 35.8471 34.9662C35.7238 35.1138 35.6621 35.2944 35.6621 35.5077C35.6621 35.6718 35.6991 35.8195 35.7731 35.9508C35.8471 36.0738 35.9499 36.1846 36.0815 36.2831C36.2212 36.3815 36.398 36.4677 36.6118 36.5415C36.8256 36.6154 37.0681 36.681 37.3395 36.7385C37.7917 36.8287 38.1987 36.9518 38.5605 37.1077C38.9222 37.2554 39.2306 37.4359 39.4855 37.6492C39.7403 37.8544 39.9336 38.0923 40.0651 38.3631C40.1967 38.6256 40.2625 38.921 40.2625 39.2492C40.2625 39.8154 40.1268 40.3036 39.8555 40.7138C39.5923 41.1159 39.2182 41.4277 38.7331 41.6492C38.248 41.8626 37.6807 41.9692 37.0311 41.9692Z" fill="var(--fill-0, black)"/>
<path d="M37.0311 41.9692C36.5296 41.9692 36.0691 41.9077 35.6498 41.7846C35.2305 41.6533 34.8522 41.4605 34.5151 41.2062C34.178 40.9518 33.8779 40.6441 33.6148 40.2831L34.6631 39.1015C35.066 39.6595 35.4607 40.0451 35.8471 40.2585C36.2336 40.4718 36.6693 40.5785 37.1545 40.5785C37.434 40.5785 37.6889 40.5374 37.9191 40.4554C38.1493 40.3651 38.3302 40.2462 38.4618 40.0985C38.5933 39.9426 38.6591 39.7662 38.6591 39.5692C38.6591 39.4297 38.6303 39.3026 38.5728 39.1877C38.5235 39.0646 38.4453 38.958 38.3385 38.8677C38.2316 38.7692 38.1 38.679 37.9438 38.5969C37.7876 38.5149 37.6108 38.4451 37.4135 38.3877C37.2161 38.3303 36.9982 38.2769 36.7598 38.2277C36.3076 38.1374 35.9129 38.0185 35.5758 37.8708C35.2387 37.7149 34.955 37.5262 34.7248 37.3046C34.4946 37.0749 34.326 36.8205 34.2191 36.5415C34.1122 36.2544 34.0588 35.9303 34.0588 35.5692C34.0588 35.2082 34.1369 34.8759 34.2931 34.5723C34.4576 34.2687 34.6796 34.0062 34.9591 33.7846C35.2387 33.5631 35.5635 33.3908 35.9335 33.2677C36.3035 33.1446 36.7022 33.0831 37.1298 33.0831C37.6149 33.0831 38.0466 33.1405 38.4248 33.2554C38.8112 33.3703 39.1483 33.5426 39.4361 33.7723C39.7321 33.9938 39.9747 34.2646 40.1638 34.5846L39.1031 35.6308C38.9387 35.3764 38.7537 35.1672 38.5481 35.0031C38.3426 34.8308 38.1206 34.7036 37.8821 34.6215C37.6437 34.5313 37.3929 34.4862 37.1298 34.4862C36.8338 34.4862 36.5748 34.5272 36.3528 34.6092C36.139 34.6913 35.9705 34.8103 35.8471 34.9662C35.7238 35.1138 35.6621 35.2944 35.6621 35.5077C35.6621 35.6718 35.6991 35.8195 35.7731 35.9508C35.8471 36.0738 35.9499 36.1846 36.0815 36.2831C36.2212 36.3815 36.398 36.4677 36.6118 36.5415C36.8256 36.6154 37.0681 36.681 37.3395 36.7385C37.7917 36.8287 38.1987 36.9518 38.5605 37.1077C38.9222 37.2554 39.2306 37.4359 39.4855 37.6492C39.7403 37.8544 39.9336 38.0923 40.0651 38.3631C40.1967 38.6256 40.2625 38.921 40.2625 39.2492C40.2625 39.8154 40.1268 40.3036 39.8555 40.7138C39.5923 41.1159 39.2182 41.4277 38.7331 41.6492C38.248 41.8626 37.6807 41.9692 37.0311 41.9692Z" fill="var(--fill-1, black)"/>
<path d="M55.5 44.3077H70.3V29.5385H55.5V44.3077ZM74 45.5385C74 46.8554 72.9637 47.931 71.6604 47.997L71.5333 48H54.2667L54.1396 47.997C52.8784 47.9331 51.867 46.9238 51.803 45.6653L51.8 45.5385V28.3077C51.8 26.9482 52.9044 25.8462 54.2667 25.8462H71.5333C72.8956 25.8462 74 26.9482 74 28.3077V45.5385Z" fill="black"/>
<path d="M59.3922 41.8462V33.2308H62.8578C63.4827 33.2308 64.046 33.3333 64.5475 33.5385C65.0573 33.7436 65.4931 34.039 65.8548 34.4246C66.2248 34.8103 66.5044 35.2656 66.6935 35.7908C66.8908 36.3159 66.9895 36.8985 66.9895 37.5385C66.9895 38.1785 66.8908 38.7651 66.6935 39.2985C66.5044 39.8236 66.229 40.279 65.8672 40.6646C65.5054 41.0421 65.0696 41.3333 64.5598 41.5385C64.0501 41.7436 63.4827 41.8462 62.8578 41.8462H59.3922ZM60.9955 40.6031L60.8722 40.3692H62.7962C63.1991 40.3692 63.5567 40.3036 63.8692 40.1723C64.1898 40.041 64.4612 39.8523 64.6832 39.6062C64.9052 39.36 65.0737 39.0646 65.1888 38.72C65.304 38.3672 65.3615 37.9733 65.3615 37.5385C65.3615 37.1036 65.304 36.7138 65.1888 36.3692C65.0737 36.0164 64.9011 35.7169 64.6708 35.4708C64.4488 35.2246 64.1816 35.0359 63.8692 34.9046C63.5567 34.7733 63.1991 34.7077 62.7962 34.7077H60.8352L60.9955 34.4985V40.6031Z" fill="var(--fill-0, black)"/>
<path d="M59.3922 41.8462V33.2308H62.8578C63.4827 33.2308 64.046 33.3333 64.5475 33.5385C65.0573 33.7436 65.4931 34.039 65.8548 34.4246C66.2248 34.8103 66.5044 35.2656 66.6935 35.7908C66.8908 36.3159 66.9895 36.8985 66.9895 37.5385C66.9895 38.1785 66.8908 38.7651 66.6935 39.2985C66.5044 39.8236 66.229 40.279 65.8672 40.6646C65.5054 41.0421 65.0696 41.3333 64.5598 41.5385C64.0501 41.7436 63.4827 41.8462 62.8578 41.8462H59.3922ZM60.9955 40.6031L60.8722 40.3692H62.7962C63.1991 40.3692 63.5567 40.3036 63.8692 40.1723C64.1898 40.041 64.4612 39.8523 64.6832 39.6062C64.9052 39.36 65.0737 39.0646 65.1888 38.72C65.304 38.3672 65.3615 37.9733 65.3615 37.5385C65.3615 37.1036 65.304 36.7138 65.1888 36.3692C65.0737 36.0164 64.9011 35.7169 64.6708 35.4708C64.4488 35.2246 64.1816 35.0359 63.8692 34.9046C63.5567 34.7733 63.1991 34.7077 62.7962 34.7077H60.8352L60.9955 34.4985V40.6031Z" fill="var(--fill-1, black)"/>
</g>
</svg>
