<svg preserveAspectRatio="none" width="100%" height="100%" overflow="visible" style="display: block;" viewBox="0 0 128 84" fill="none" xmlns="http://www.w3.org/2000/svg">
<path id="Rectangle 2 (Stroke)" d="M48 78V84H16V78H48ZM64 78V84H48V78H64ZM80 78V84H64V78H80ZM112 78V84H80V78H112ZM122 68V16C122 10.4772 117.523 6 112 6H16C10.4772 6 6.00001 10.4772 6 16V68C6 73.5228 10.4772 78 16 78V84L15.5869 83.9951C7.07854 83.7795 0.220503 76.9215 0.00488281 68.4131L0 68V16C4.7491e-06 7.16345 7.16345 5.1544e-07 16 0H112C120.837 0 128 7.16345 128 16V68C128 76.6984 121.059 83.776 112.413 83.9951L112 84V78C117.523 78 122 73.5228 122 68Z" fill="var(--fill-0, black)"/>
</svg>
