<svg preserveAspectRatio="none" width="100%" height="100%" overflow="visible" style="display: block;" viewBox="0 0 54 48" fill="none" xmlns="http://www.w3.org/2000/svg">
<path id="Rectangle 2 (Stroke)" d="M20.25 44.5714V48H9V44.5714H20.25ZM27 44.5714V48H20.25V44.5714H27ZM33.75 44.5714V48H27V44.5714H33.75ZM45 44.5714V48H33.75V44.5714H45ZM50.625 38.8571V9.14286C50.625 5.98694 48.1066 3.42857 45 3.42857H9C5.8934 3.42857 3.375 5.98694 3.375 9.14286V38.8571C3.375 42.0131 5.8934 44.5714 9 44.5714V48L8.76764 47.9972C3.98168 47.874 0.124033 43.9551 0.00274658 39.0932L0 38.8571V9.14286C2.67137e-06 4.0934 4.02944 3.68172e-08 9 0H45C49.9706 0 54 4.0934 54 9.14286V38.8571C54 43.8277 50.0955 47.872 45.2324 47.9972L45 48V44.5714C48.1066 44.5714 50.625 42.0131 50.625 38.8571Z" fill="var(--fill-0, black)"/>
</svg>
