<svg width="48" height="48" viewBox="0 0 47.2514 48" fill="none" xmlns="http://www.w3.org/2000/svg">
<g id="Vector">
<path d="M31.5014 48C22.8029 48 15.7514 40.9485 15.7514 32.25V15.75C15.7514 7.05152 22.8029 3.80223e-07 31.5014 0C40.1998 -3.80223e-07 47.2514 7.05152 47.2514 15.75H45.0014C45.0014 8.67302 39.5558 2.86857 32.6264 2.29688V11.0006C34.8808 11.5122 36.5639 13.5282 36.5639 15.9375V16.875H45.0014V15.75H47.2514L47.2514 32.25H45.0014L45.0014 19.125H36.5639V19.9105C36.5638 22.7904 34.2292 25.1249 31.3494 25.125C28.6375 25.125 26.4389 22.9264 26.4389 20.2145L26.4389 19.125H18.0014V32.25C18.0014 39.7058 24.0455 45.75 31.5014 45.75C38.9572 45.75 45.0014 39.7058 45.0014 32.25H47.2514C47.2514 40.9485 40.1998 48 31.5014 48ZM31.3494 22.875C32.9866 22.8749 34.3138 21.5477 34.3139 19.9105V15.9375C34.3139 14.3842 33.0547 13.125 31.5014 13.125C29.9481 13.125 28.6889 14.3842 28.6889 15.9375L28.6889 20.2145C28.6889 21.6838 29.8801 22.875 31.3494 22.875ZM26.4389 16.875V15.9375C26.4389 13.5282 28.1219 11.5122 30.3764 11.0006V2.29688C23.4469 2.86857 18.0014 8.67302 18.0014 15.75V16.875H26.4389Z" fill="black"/>
<path d="M31.5014 48C22.8029 48 15.7514 40.9485 15.7514 32.25V15.75C15.7514 7.05152 22.8029 3.80223e-07 31.5014 0C40.1998 -3.80223e-07 47.2514 7.05152 47.2514 15.75H45.0014C45.0014 8.67302 39.5558 2.86857 32.6264 2.29688V11.0006C34.8808 11.5122 36.5639 13.5282 36.5639 15.9375V16.875H45.0014V15.75H47.2514L47.2514 32.25H45.0014L45.0014 19.125H36.5639V19.9105C36.5638 22.7904 34.2292 25.1249 31.3494 25.125C28.6375 25.125 26.4389 22.9264 26.4389 20.2145L26.4389 19.125H18.0014V32.25C18.0014 39.7058 24.0455 45.75 31.5014 45.75C38.9572 45.75 45.0014 39.7058 45.0014 32.25H47.2514C47.2514 40.9485 40.1998 48 31.5014 48ZM31.3494 22.875C32.9866 22.8749 34.3138 21.5477 34.3139 19.9105V15.9375C34.3139 14.3842 33.0547 13.125 31.5014 13.125C29.9481 13.125 28.6889 14.3842 28.6889 15.9375L28.6889 20.2145C28.6889 21.6838 29.8801 22.875 31.3494 22.875ZM26.4389 16.875V15.9375C26.4389 13.5282 28.1219 11.5122 30.3764 11.0006V2.29688C23.4469 2.86857 18.0014 8.67302 18.0014 15.75V16.875H26.4389Z" fill="black"/>
<path d="M5.40136 9.05C5.70136 8.65 6.30136 8.65 6.60136 9.05L11.8514 16.05C12.2222 16.5444 11.8694 17.25 11.2514 17.25H0.751361C0.133328 17.25 -0.219459 16.5444 0.151362 16.05L5.40136 9.05Z" fill="black"/>
<path d="M5.40136 38.95C5.70136 39.35 6.30136 39.35 6.60136 38.95L11.8514 31.95C12.2222 31.4556 11.8694 30.75 11.2514 30.75H0.751361C0.133328 30.75 -0.219459 31.4556 0.151362 31.95L5.40136 38.95Z" fill="black"/>
<path d="M8.25136 24C8.25136 22.7574 7.244 21.75 6.00136 21.75C4.75872 21.75 3.75136 22.7574 3.75136 24C3.75136 25.2426 4.75872 26.25 6.00136 26.25C7.244 26.25 8.25136 25.2426 8.25136 24Z" fill="black"/>
<path d="M31.2985 27.375C27.2684 27.375 24.0014 24.108 24.0014 20.0779H26.2514C26.2514 22.8653 28.511 25.125 31.2985 25.125C34.263 25.125 36.675 22.7593 36.7495 19.8127L36.7514 19.6721V16.125C36.7514 13.2255 34.4009 10.875 31.5014 10.875C28.6019 10.875 26.2514 13.2255 26.2514 16.125H24.0014C24.0014 11.9829 27.3592 8.625 31.5014 8.625C35.6435 8.625 39.0014 11.9829 39.0014 16.125V19.6721C39.0014 23.9263 35.5527 27.375 31.2985 27.375ZM24.0014 16.125H26.2514V18H24.0014V16.125ZM24.0014 18H26.2514V20.0779H24.0014V18Z" fill="black"/>
<path d="M26.2514 16.125V18V20.0779C26.2514 22.8653 28.511 25.125 31.2985 25.125C34.31 25.125 36.7514 22.6836 36.7514 19.6721V18V16.125C36.7514 13.2255 34.4009 10.875 31.5014 10.875C28.6019 10.875 26.2514 13.2255 26.2514 16.125Z" fill="black"/>
<path d="M34.5014 16.125H36.7514V18H34.5014V16.125ZM34.5014 18H36.7514V19.6721H34.5014V18ZM31.2985 25.125C28.511 25.125 26.2514 22.8653 26.2514 20.0779V16.125C26.2514 13.2255 28.6019 10.875 31.5014 10.875C34.4009 10.875 36.7514 13.2255 36.7514 16.125H34.5014C34.5014 14.4681 33.1582 13.125 31.5014 13.125C29.8445 13.125 28.5014 14.4681 28.5014 16.125V20.0779C28.5014 21.6227 29.7537 22.875 31.2985 22.875C33.0674 22.875 34.5014 21.441 34.5014 19.6721H36.7514L36.7495 19.8127C36.675 22.7593 34.263 25.125 31.2985 25.125Z" fill="var(--fill-0, #F3E8D8)"/>
</g>
</svg>
