<svg preserveAspectRatio="none" width="100%" height="100%" overflow="visible" style="display: block;" viewBox="0 0 48 48" fill="none" xmlns="http://www.w3.org/2000/svg">
<path id="Rectangle 2 (Stroke)" d="M18 45V48H8V45H18ZM24 45V48H18V45H24ZM30 45V48H24V45H30ZM40 45V48H30V45H40ZM45 40V8C45 5.23858 42.7614 3 40 3H8C5.23857 3 3 5.23858 3 8V40C3 42.7614 5.23858 45 8 45V48L7.79346 47.9976C3.47063 47.888 0 44.3492 0 40V8C0 3.58172 3.58172 3.22149e-08 8 0H40C44.4183 0 48 3.58172 48 8V40L47.9976 40.2065C47.8897 44.4607 44.4607 47.8897 40.2065 47.9976L40 48V45C42.7614 45 45 42.7614 45 40Z" fill="var(--fill-0, black)"/>
</svg>
