<svg width="78" height="36" viewBox="0 0 78 36" fill="none" xmlns="http://www.w3.org/2000/svg">
<g clip-path="url(#clip0_643_273)">
<path d="M4 2H32C33.1046 2 34 2.89543 34 4V32C34 33.1046 33.1046 34 32 34H4C2.89543 34 2 33.1046 2 32V4C2 2.89543 2.89543 2 4 2Z" stroke="black" stroke-width="4"/>
<path d="M24.6948 25H21.0948L19.4948 11H22.6348L24.6948 25ZM22.5148 21.62H13.6948V18.62H22.5148V21.62ZM16.5148 11L14.9148 25H11.3148L13.3748 11H16.5148ZM21.4148 14H14.7148V11H21.4148V14Z" fill="black"/>
<path d="M24.6948 25H21.0948L19.4948 11H22.6348L24.6948 25ZM22.5148 21.62H13.6948V18.62H22.5148V21.62ZM16.5148 11L14.9148 25H11.3148L13.3748 11H16.5148ZM21.4148 14H14.7148V11H21.4148V14Z" fill="black"/>
<path d="M46 2H74C75.1046 2 76 2.89543 76 4V32C76 33.1046 75.1046 34 74 34H46C44.8954 34 44 33.1046 44 32V4C44 2.89543 44.8954 2 46 2Z" stroke="black" stroke-width="4"/>
<path d="M56.2996 11V25H52.8996V11H56.2996ZM59.7996 11C61.3596 11 62.6863 11.2133 63.7796 11.64C64.8863 12.0533 65.7463 12.7867 66.3596 13.84C66.9863 14.88 67.2996 16.3 67.2996 18.1C67.2996 20.6467 66.6463 22.4333 65.3396 23.46C64.0463 24.4867 62.1996 25 59.7996 25H55.9196V22H59.7996C61.2796 22 62.3329 21.7 62.9596 21.1C63.5863 20.5 63.8996 19.5 63.8996 18.1C63.8996 17.0867 63.7596 16.2867 63.4796 15.7C63.2129 15.1 62.7796 14.6667 62.1796 14.4C61.5929 14.1333 60.7996 14 59.7996 14H55.9196V11H59.7996Z" fill="black"/>
<path d="M56.2996 11V25H52.8996V11H56.2996ZM59.7996 11C61.3596 11 62.6863 11.2133 63.7796 11.64C64.8863 12.0533 65.7463 12.7867 66.3596 13.84C66.9863 14.88 67.2996 16.3 67.2996 18.1C67.2996 20.6467 66.6463 22.4333 65.3396 23.46C64.0463 24.4867 62.1996 25 59.7996 25H55.9196V22H59.7996C61.2796 22 62.3329 21.7 62.9596 21.1C63.5863 20.5 63.8996 19.5 63.8996 18.1C63.8996 17.0867 63.7596 16.2867 63.4796 15.7C63.2129 15.1 62.7796 14.6667 62.1796 14.4C61.5929 14.1333 60.7996 14 59.7996 14H55.9196V11H59.7996Z" fill="black"/>
</g>
<defs>
<clipPath id="clip0_643_273">
<rect width="78" height="36" fill="white"/>
</clipPath>
</defs>
</svg>