<svg width="78" height="78" viewBox="0 0 78 78" fill="none" xmlns="http://www.w3.org/2000/svg">
<path d="M4 23H32C33.1046 23 34 23.8954 34 25V53C34 54.1046 33.1046 55 32 55H4C2.89543 55 2 54.1046 2 53V25C2 23.8954 2.89543 23 4 23Z" stroke="black" stroke-width="4"/>
<path d="M24.6948 46H21.0948L19.4948 32H22.6348L24.6948 46ZM22.5148 42.62H13.6948V39.62H22.5148V42.62ZM16.5148 32L14.9148 46H11.3148L13.3748 32H16.5148ZM21.4148 35H14.7148V32H21.4148V35Z" fill="black"/>
<path d="M24.6948 46H21.0948L19.4948 32H22.6348L24.6948 46ZM22.5148 42.62H13.6948V39.62H22.5148V42.62ZM16.5148 32L14.9148 46H11.3148L13.3748 32H16.5148ZM21.4148 35H14.7148V32H21.4148V35Z" fill="black"/>
<path d="M46 23H74C75.1046 23 76 23.8954 76 25V53C76 54.1046 75.1046 55 74 55H46C44.8954 55 44 54.1046 44 53V25C44 23.8954 44.8954 23 46 23Z" stroke="black" stroke-width="4"/>
<path d="M56.2996 32V46H52.8996V32H56.2996ZM59.7996 32C61.3596 32 62.6863 32.2133 63.7796 32.64C64.8863 33.0533 65.7463 33.7867 66.3596 34.84C66.9863 35.88 67.2996 37.3 67.2996 39.1C67.2996 41.6467 66.6463 43.4333 65.3396 44.46C64.0463 45.4867 62.1996 46 59.7996 46H55.9196V43H59.7996C61.2796 43 62.3329 42.7 62.9596 42.1C63.5863 41.5 63.8996 40.5 63.8996 39.1C63.8996 38.0867 63.7596 37.2867 63.4796 36.7C63.2129 36.1 62.7796 35.6667 62.1796 35.4C61.5929 35.1333 60.7996 35 59.7996 35H55.9196V32H59.7996Z" fill="black"/>
<path d="M56.2996 32V46H52.8996V32H56.2996ZM59.7996 32C61.3596 32 62.6863 32.2133 63.7796 32.64C64.8863 33.0533 65.7463 33.7867 66.3596 34.84C66.9863 35.88 67.2996 37.3 67.2996 39.1C67.2996 41.6467 66.6463 43.4333 65.3396 44.46C64.0463 45.4867 62.1996 46 59.7996 46H55.9196V43H59.7996C61.2796 43 62.3329 42.7 62.9596 42.1C63.5863 41.5 63.8996 40.5 63.8996 39.1C63.8996 38.0867 63.7596 37.2867 63.4796 36.7C63.2129 36.1 62.7796 35.6667 62.1796 35.4C61.5929 35.1333 60.7996 35 59.7996 35H55.9196V32H59.7996Z" fill="black"/>
</svg>
