<svg width="70" height="78" viewBox="0 0 70 78" fill="none" xmlns="http://www.w3.org/2000/svg">
<g clip-path="url(#clip0_535_106)">
<path d="M26.2943 27.3228C26.1535 24.8922 28.4181 23.7667 30.392 24.8462C32.2382 25.8559 33.9991 27.1912 35.767 28.3404L46.4008 35.2378L61.2494 44.8931L64.9994 47.3374C66.8049 48.4941 69.1828 49.6719 69.5658 52.0288C69.7415 53.1109 69.4329 54.1435 68.7787 55.0113C68.2165 55.746 67.4893 56.3398 66.6557 56.7437C65.342 57.389 63.3556 57.7422 61.892 58.0904C60.3212 58.464 58.7027 58.834 57.1195 59.1343C57.532 60.0617 58.3089 61.25 58.852 62.1451L61.4399 66.4234C62.005 67.3444 62.871 68.4771 63.1234 69.5181C63.7781 72.2188 62.2673 73.1822 60.2816 74.4654C58.4246 75.6654 56.6678 76.8266 54.64 77.7593C54.4873 77.833 54.2678 77.9153 54.1332 78.0005H52.6508C52.1063 77.7203 51.388 77.46 50.9691 77.0162C50.0231 76.0133 49.3653 74.604 48.6205 73.441C47.257 71.313 45.9142 68.9036 44.5238 66.8081C43.718 67.988 42.637 69.0748 41.7211 70.1705C39.622 72.6816 36.3583 77.003 32.6518 74.6538C31.4758 73.9086 30.8293 72.0733 30.5912 70.7505C30.3495 68.9261 30.2488 66.9383 30.0522 65.065L28.515 49.4683L27.0668 35.3853C26.7816 32.6842 26.4523 30.0483 26.2943 27.3228ZM33.3529 58.9497C33.6285 61.6284 33.7977 64.3805 34.0512 67.0689C34.198 68.6265 34.1765 69.9688 34.4486 71.5533C35.4233 72.3128 38.3756 68.2819 39.0024 67.5035C39.9836 66.2907 40.9859 65.095 42.0082 63.9165C42.6363 63.1945 43.5381 62.1166 44.4066 61.6861C45.1959 61.2954 45.9193 62.0014 46.3344 62.6343C47.1924 63.9428 47.991 65.3109 48.8051 66.6578C50.3387 69.2085 51.9059 71.7386 53.5063 74.2476C54.2518 73.7778 59.3394 70.7894 59.5951 70.4458C58.1686 68.1104 52.5999 59.6955 52.144 57.7183C52.5429 56.3281 53.584 56.2542 54.8373 55.9507C57.8628 55.218 60.9492 54.7124 63.9438 53.855C64.7924 53.6137 65.4809 53.2694 66.1518 52.7027C64.7831 51.3755 60.8904 49.026 59.1459 47.8814L43.9301 37.9732L34.7592 32.0132C33.5822 31.2405 32.4225 30.4217 31.2152 29.691C31.0193 29.5724 30.3041 29.0762 30.1654 29.0054L33.3529 58.9497Z" fill="black"/>
<path d="M40.6052 0.147258C42.2119 0.107096 43.5625 1.63762 43.15 3.29251C42.5046 5.87973 41.8887 8.50181 41.1355 11.0605C40.5909 12.9107 40.5871 14.5444 38.4522 15.0874C37.1976 15.2052 35.9863 14.5312 35.7285 13.2447C35.6482 12.8427 35.6418 12.4294 35.7096 12.025C35.9082 10.8308 38.2346 1.97066 38.6334 1.38346C39.1084 0.683958 39.791 0.312699 40.6052 0.147258Z" fill="black"/>
<path d="M16.4669 2.39571C17.4471 2.31737 18.2913 2.45798 18.891 3.32721C19.763 4.59128 20.4841 5.97694 21.2471 7.31328C22.2434 9.10257 23.4481 10.8131 24.2577 12.6965C24.9219 14.2418 23.8714 15.4536 22.4591 15.9641C21.229 16.1881 20.358 15.7699 19.7135 14.7255C18.8335 13.2997 18.0245 11.8183 17.2028 10.3562C16.2708 8.69778 15.1597 7.10226 14.4574 5.3332C14.2924 4.9126 14.5262 3.9733 14.7912 3.58723C15.2725 2.88589 15.66 2.60157 16.4669 2.39571Z" fill="black"/>
<path d="M59.6011 16.4439C62.3625 16.2889 63.5713 19.4918 61.2142 21.0025C58.899 22.4862 56.4664 23.7666 54.0927 25.1543C53.3707 25.5764 52.5939 26.0659 51.7979 26.3104C49.4469 26.6912 48.1102 24.3971 49.15 22.5889C49.6234 21.7655 52.1418 20.3819 53.0684 19.9283C54.8838 19.0396 57.7773 16.9125 59.6011 16.4439Z" fill="black"/>
<path d="M15.3869 41.8693C16.6992 41.7906 17.7905 42.287 18.1746 43.6362C18.3558 44.2833 18.2641 44.9762 17.9208 45.5543C17.0736 46.9877 11.0235 49.6212 9.49756 50.8249C9.11352 51.1278 8.02497 51.62 7.5079 51.7466C4.44682 51.9392 3.50913 48.4937 6.05982 46.997C8.22355 45.7272 10.3948 44.473 12.5777 43.2346C13.4403 42.7452 14.4218 42.0873 15.3869 41.8693Z" fill="black"/>
<path d="M2.38421 22.7141C4.05931 22.5906 7.89247 23.9236 9.63912 24.3518C10.8506 24.7535 12.4803 24.9014 13.601 25.478C15.8894 26.6551 15.3709 29.3349 13.1228 30.1894C11.9214 30.3152 9.13264 29.4439 7.85713 29.0469C6.17058 28.522 3.03005 28.0165 1.57018 27.1783C1.03157 26.8643 0.642615 26.347 0.491236 25.7433C0.121815 24.3209 0.978327 23.0591 2.38421 22.7141Z" fill="black"/>
</g>
<defs>
<clipPath id="clip0_535_106">
<rect width="70" height="78" fill="white"/>
</clipPath>
</defs>
</svg>
