<svg width="119" height="78" viewBox="0 0 119 78" fill="none" xmlns="http://www.w3.org/2000/svg">
<g clip-path="url(#clip0_535_88)">
<path d="M16 2H103.4C110.911 2.00021 117 8.08885 117 15.5996V62C117 69.732 110.732 76 103 76H16C8.26802 76 2 69.732 2 62V16C2 8.26802 8.26801 2 16 2Z" stroke="black" stroke-width="4"/>
<path d="M15.5661 45.7013V61.2156H11.8018V45.7013H15.5661ZM23.5818 51.2421V54.5666H14.2596V51.2421H23.5818ZM23.9583 45.7013V49.0258H14.2596V45.7013H23.9583ZM24.0247 57.8911V61.2156H14.2596V57.8911H24.0247Z" fill="black"/>
<path d="M29.5568 45.7013V61.2156H25.7925V45.7013H29.5568ZM39.8533 45.7013V61.2156H36.089V45.7013H39.8533ZM38.0155 45.7013V49.0258H28.2504V45.7013H38.0155Z" fill="black"/>
<path d="M49.8142 45.7013V61.2156H46.0499V45.7013H49.8142ZM54.6857 45.7013V49.0258H41.1785V45.7013H54.6857Z" fill="black"/>
<path d="M60.0035 45.7013V61.2156H56.2392V45.7013H60.0035ZM68.0193 51.2421V54.5666H58.6971V51.2421H68.0193ZM68.3957 45.7013V49.0258H58.6971V45.7013H68.3957ZM68.4621 57.8911V61.2156H58.6971V57.8911H68.4621Z" fill="black"/>
<path d="M73.9943 45.7013V61.2156H70.2299V45.7013H73.9943ZM84.2908 45.7013V55.7634H80.5264V45.7013H84.2908ZM82.4529 45.7013V49.0258H73.5735V45.7013H82.4529ZM82.4529 52.439V55.7634H73.5735V52.439H82.4529ZM82.1429 55.298L84.5786 61.2156H80.5264L78.4007 55.298H82.1429Z" fill="black"/>
<path d="M21.9561 37.0717L14.195 29.398L21.9561 21.7243V37.0717ZM19.5028 31.1452V27.6507H40.8988V31.1452H19.5028ZM37.5136 31.1452V15.7979H40.9695V31.1452H37.5136Z" fill="black"/>
</g>
<defs>
<clipPath id="clip0_535_88">
<rect width="119" height="78" fill="white"/>
</clipPath>
</defs>
</svg>
