<svg width="89" height="78" viewBox="0 0 89 78" fill="none" xmlns="http://www.w3.org/2000/svg">
<g clip-path="url(#clip0_535_74)">
<path d="M16 2H73.4004C80.9112 2.00021 86.9998 8.08885 87 15.5996V62C87 69.732 80.732 76 73 76H16C8.26802 76 2 69.732 2 62V16C2 8.26801 8.26801 2 16 2Z" stroke="black" stroke-width="4"/>
<path d="M18.1947 28.4143V49.2143H13.1514V28.4143H18.1947ZM28.934 35.8429V40.3H16.4444V35.8429H28.934ZM29.4384 28.4143V32.8715H16.4444V28.4143H29.4384ZM29.5274 44.7572V49.2143H16.4444V44.7572H29.5274Z" fill="black"/>
<path d="M36.3859 34.4463C36.3859 34.9416 36.643 35.3279 37.1573 35.6052C37.6715 35.8627 38.5022 36.0509 39.6493 36.1698L45.5233 36.764C48.1339 37.0216 50.0227 37.6654 51.1896 38.6955C52.3763 39.7058 52.9696 41.0924 52.9696 42.8555C52.9696 45.1732 51.9412 46.8669 49.8843 47.9366C47.8472 48.9865 45.2563 49.5115 42.1116 49.5115C34.9718 49.5115 31.5206 46.8966 31.7579 41.6669H36.8606C36.7815 42.8159 37.177 43.6677 38.0473 44.2223C38.9175 44.777 40.2723 45.0543 42.1116 45.0543C45.988 45.0543 47.9263 44.4402 47.9263 43.212C47.9263 42.5583 47.6098 42.0631 46.9769 41.7263C46.3638 41.3896 45.3552 41.1618 43.9509 41.0429L38.8779 40.5972C33.8544 40.1614 31.3426 38.2002 31.3426 34.7138C31.3426 32.4357 32.3612 30.7717 34.3983 29.7218C36.4354 28.652 39.0065 28.1172 42.1116 28.1172C45.2958 28.1172 47.8076 28.7016 49.6469 29.8703C51.506 31.0193 52.3763 32.9111 52.2576 35.5458H47.1846C47.2835 34.5949 46.8978 33.862 46.0276 33.3469C45.1574 32.8319 43.852 32.5743 42.1116 32.5743C38.2945 32.5743 36.3859 33.1983 36.3859 34.4463Z" fill="black"/>
<path d="M54.1679 38.9629C54.1679 36.1896 54.6227 34.0105 55.5325 32.4258C56.4621 30.8212 57.7377 29.7019 59.3595 29.068C60.9813 28.4341 62.9591 28.1172 65.2929 28.1172C68.5166 28.1172 71.0581 28.7511 72.9172 30.0189C74.7961 31.2867 75.874 33.5252 76.1508 36.7343H71.0779C70.8801 35.2288 70.3263 34.1591 69.4165 33.5252C68.5067 32.8913 67.1322 32.5743 65.2929 32.5743C63.8095 32.5743 62.6229 32.7823 61.7329 33.1983C60.8626 33.5945 60.2199 34.2581 59.8045 35.1892C59.409 36.1004 59.2112 37.3583 59.2112 38.9629C59.2112 40.4684 59.409 41.6669 59.8045 42.5583C60.2199 43.43 60.8626 44.0639 61.7329 44.46C62.6229 44.8562 63.8095 45.0543 65.2929 45.0543C67.0926 45.0543 68.4474 44.7572 69.3572 44.1629C70.2867 43.5686 70.8504 42.5781 71.0482 41.1915H76.1508C75.8542 44.262 74.7664 46.4212 72.8875 47.6692C71.0284 48.8974 68.4969 49.5115 65.2929 49.5115C62.9789 49.5115 61.0011 49.2044 59.3595 48.5903C57.7377 47.9564 56.4621 46.8669 55.5325 45.3218C54.6227 43.7568 54.1679 41.6372 54.1679 38.9629Z" fill="black"/>
</g>
<defs>
<clipPath id="clip0_535_74">
<rect width="89" height="78" fill="white"/>
</clipPath>
</defs>
</svg>
