<svg width="51" height="78" viewBox="0 0 51 78" fill="none" xmlns="http://www.w3.org/2000/svg">
<path d="M25.5 78C11.4167 78 1.82044e-06 66.5833 -1.11464e-06 52.5L-2.29485e-06 25.5L0.00878674 24.8418C0.357909 11.0627 11.6368 1.01349e-06 25.5 -1.11464e-06C39.3632 -1.72062e-06 50.6421 11.0627 50.9912 24.8418L51 25.5L47 25.5C47 14.3003 38.4364 5.10266 27.5 4.09375L27.5 17.7422C31.1595 18.639 33.875 21.9391 33.875 25.875L33.875 27.25L47 27.25L47 25.5L51 25.5L51 52.5L47 52.5L47 31.25L33.875 31.25L33.875 32.3789C33.8749 37.1401 30.0152 40.9999 25.2539 41C20.7646 41 17.125 37.3604 17.125 32.8711L17.125 31.25L4 31.25L4 52.5C4 64.3741 13.6259 74 25.5 74C37.3741 74 47 64.3741 47 52.5L51 52.5C51 66.5833 39.5833 78 25.5 78ZM25.2539 37C27.806 36.9999 29.8749 34.931 29.875 32.3789L29.875 25.875C29.875 23.4588 27.9162 21.5 25.5 21.5C23.0838 21.5 21.125 23.4588 21.125 25.875L21.125 32.8711C21.125 35.1513 22.9737 37 25.2539 37ZM17.125 27.25L17.125 25.875C17.125 21.9391 19.8406 18.639 23.5 17.7422L23.5 4.09375C12.5636 5.10266 4 14.3003 4 25.5L4 27.25L17.125 27.25Z" fill="black"/>
</svg>
