<svg width="120" height="78" viewBox="0 0 120 78" fill="none" xmlns="http://www.w3.org/2000/svg">
<g clip-path="url(#clip0_532_2150)">
<path d="M4 44H32C33.1046 44 34 44.8954 34 46V74C34 75.1046 33.1046 76 32 76H4C2.89543 76 2 75.1046 2 74V46C2 44.8954 2.89543 44 4 44Z" stroke="black" stroke-width="4"/>
<path d="M24.6948 67H21.0948L19.4948 53H22.6348L24.6948 67ZM22.5148 63.62H13.6948V60.62H22.5148V63.62ZM16.5148 53L14.9148 67H11.3148L13.3748 53H16.5148ZM21.4148 56H14.7148V53H21.4148V56Z" fill="black"/>
<path d="M24.6948 67H21.0948L19.4948 53H22.6348L24.6948 67ZM22.5148 63.62H13.6948V60.62H22.5148V63.62ZM16.5148 53L14.9148 67H11.3148L13.3748 53H16.5148ZM21.4148 56H14.7148V53H21.4148V56Z" fill="black"/>
<path d="M46 2H74C75.1046 2 76 2.89543 76 4V32C76 33.1046 75.1046 34 74 34H46C44.8954 34 44 33.1046 44 32V4C44 2.89543 44.8954 2 46 2Z" stroke="black" stroke-width="4"/>
<path d="M49.7699 11H53.3699L54.8699 25H51.6299L49.7699 11ZM55.6499 25L57.1499 11H59.7499V14L58.8899 25H55.6499ZM52.9699 22H57.5499V25H52.9699V22ZM65.1299 25L66.6299 11H70.2299L68.3699 25H65.1299ZM60.2499 14V11H62.8499L64.3499 25H61.1099L60.2499 14ZM62.4499 25V22H67.0299V25H62.4499ZM57.8899 14V11H62.1099V14H57.8899Z" fill="black"/>
<path d="M49.7699 11H53.3699L54.8699 25H51.6299L49.7699 11ZM55.6499 25L57.1499 11H59.7499V14L58.8899 25H55.6499ZM52.9699 22H57.5499V25H52.9699V22ZM65.1299 25L66.6299 11H70.2299L68.3699 25H65.1299ZM60.2499 14V11H62.8499L64.3499 25H61.1099L60.2499 14ZM62.4499 25V22H67.0299V25H62.4499ZM57.8899 14V11H62.1099V14H57.8899Z" fill="black"/>
<path d="M46 44H74C75.1046 44 76 44.8954 76 46V74C76 75.1046 75.1046 76 74 76H46C44.8954 76 44 75.1046 44 74V46C44 44.8954 44.8954 44 46 44Z" stroke="black" stroke-width="4"/>
<path d="M56.2684 57.06C56.2684 57.3933 56.4418 57.6533 56.7884 57.84C57.1351 58.0133 57.6951 58.14 58.4684 58.22L62.4284 58.62C64.1884 58.7933 65.4618 59.2267 66.2484 59.92C67.0484 60.6 67.4484 61.5333 67.4484 62.72C67.4484 64.28 66.7551 65.42 65.3684 66.14C63.9951 66.8467 62.2484 67.2 60.1284 67.2C55.3151 67.2 52.9884 65.44 53.1484 61.92H56.5884C56.5351 62.6933 56.8018 63.2667 57.3884 63.64C57.9751 64.0133 58.8884 64.2 60.1284 64.2C62.7418 64.2 64.0484 63.7867 64.0484 62.96C64.0484 62.52 63.8351 62.1867 63.4084 61.96C62.9951 61.7333 62.3151 61.58 61.3684 61.5L57.9484 61.2C54.5618 60.9067 52.8684 59.5867 52.8684 57.24C52.8684 55.7067 53.5551 54.5867 54.9284 53.88C56.3018 53.16 58.0351 52.8 60.1284 52.8C62.2751 52.8 63.9684 53.1933 65.2084 53.98C66.4618 54.7533 67.0484 56.0267 66.9684 57.8H63.5484C63.6151 57.16 63.3551 56.6667 62.7684 56.32C62.1818 55.9733 61.3018 55.8 60.1284 55.8C57.5551 55.8 56.2684 56.22 56.2684 57.06Z" fill="black"/>
<path d="M56.2684 57.06C56.2684 57.3933 56.4418 57.6533 56.7884 57.84C57.1351 58.0133 57.6951 58.14 58.4684 58.22L62.4284 58.62C64.1884 58.7933 65.4618 59.2267 66.2484 59.92C67.0484 60.6 67.4484 61.5333 67.4484 62.72C67.4484 64.28 66.7551 65.42 65.3684 66.14C63.9951 66.8467 62.2484 67.2 60.1284 67.2C55.3151 67.2 52.9884 65.44 53.1484 61.92H56.5884C56.5351 62.6933 56.8018 63.2667 57.3884 63.64C57.9751 64.0133 58.8884 64.2 60.1284 64.2C62.7418 64.2 64.0484 63.7867 64.0484 62.96C64.0484 62.52 63.8351 62.1867 63.4084 61.96C62.9951 61.7333 62.3151 61.58 61.3684 61.5L57.9484 61.2C54.5618 60.9067 52.8684 59.5867 52.8684 57.24C52.8684 55.7067 53.5551 54.5867 54.9284 53.88C56.3018 53.16 58.0351 52.8 60.1284 52.8C62.2751 52.8 63.9684 53.1933 65.2084 53.98C66.4618 54.7533 67.0484 56.0267 66.9684 57.8H63.5484C63.6151 57.16 63.3551 56.6667 62.7684 56.32C62.1818 55.9733 61.3018 55.8 60.1284 55.8C57.5551 55.8 56.2684 56.22 56.2684 57.06Z" fill="black"/>
<path d="M88 44H116C117.105 44 118 44.8954 118 46V74C118 75.1046 117.105 76 116 76H88C86.8954 76 86 75.1046 86 74V46C86 44.8954 86.8954 44 88 44Z" stroke="black" stroke-width="4"/>
<path d="M98.2996 53V67H94.8996V53H98.2996ZM101.8 53C103.36 53 104.686 53.2133 105.78 53.64C106.886 54.0533 107.746 54.7867 108.36 55.84C108.986 56.88 109.3 58.3 109.3 60.1C109.3 62.6467 108.646 64.4333 107.34 65.46C106.046 66.4867 104.2 67 101.8 67H97.9196V64H101.8C103.28 64 104.333 63.7 104.96 63.1C105.586 62.5 105.9 61.5 105.9 60.1C105.9 59.0867 105.76 58.2867 105.48 57.7C105.213 57.1 104.78 56.6667 104.18 56.4C103.593 56.1333 102.8 56 101.8 56H97.9196V53H101.8Z" fill="black"/>
<path d="M98.2996 53V67H94.8996V53H98.2996ZM101.8 53C103.36 53 104.686 53.2133 105.78 53.64C106.886 54.0533 107.746 54.7867 108.36 55.84C108.986 56.88 109.3 58.3 109.3 60.1C109.3 62.6467 108.646 64.4333 107.34 65.46C106.046 66.4867 104.2 67 101.8 67H97.9196V64H101.8C103.28 64 104.333 63.7 104.96 63.1C105.586 62.5 105.9 61.5 105.9 60.1C105.9 59.0867 105.76 58.2867 105.48 57.7C105.213 57.1 104.78 56.6667 104.18 56.4C103.593 56.1333 102.8 56 101.8 56H97.9196V53H101.8Z" fill="black"/>
</g>
<defs>
<clipPath id="clip0_532_2150">
<rect width="120" height="78" fill="white"/>
</clipPath>
</defs>
</svg>
