<svg width="36" height="78" viewBox="0 0 36 78" fill="none" xmlns="http://www.w3.org/2000/svg">
<g clip-path="url(#clip0_532_2209)">
<path d="M4 2H32C33.1046 2 34 2.89543 34 4V32C34 33.1046 33.1046 34 32 34H4C2.89543 34 2 33.1046 2 32V4C2 2.89543 2.89543 2 4 2Z" stroke="black" stroke-width="4"/>
<path d="M7.76992 11H11.3699L12.8699 25H9.62992L7.76992 11ZM13.6499 25L15.1499 11H17.7499V14L16.8899 25H13.6499ZM10.9699 22H15.5499V25H10.9699V22ZM23.1299 25L24.6299 11H28.2299L26.3699 25H23.1299ZM18.2499 14V11H20.8499L22.3499 25H19.1099L18.2499 14ZM20.4499 25V22H25.0299V25H20.4499ZM15.8899 14V11H20.1099V14H15.8899Z" fill="black"/>
<path d="M7.76992 11H11.3699L12.8699 25H9.62992L7.76992 11ZM13.6499 25L15.1499 11H17.7499V14L16.8899 25H13.6499ZM10.9699 22H15.5499V25H10.9699V22ZM23.1299 25L24.6299 11H28.2299L26.3699 25H23.1299ZM18.2499 14V11H20.8499L22.3499 25H19.1099L18.2499 14ZM20.4499 25V22H25.0299V25H20.4499ZM15.8899 14V11H20.1099V14H15.8899Z" fill="black"/>
<path d="M4 44H32C33.1046 44 34 44.8954 34 46V74C34 75.1046 33.1046 76 32 76H4C2.89543 76 2 75.1046 2 74V46C2 44.8954 2.89543 44 4 44Z" stroke="black" stroke-width="4"/>
<path d="M14.2684 57.06C14.2684 57.3933 14.4418 57.6533 14.7884 57.84C15.1351 58.0133 15.6951 58.14 16.4684 58.22L20.4284 58.62C22.1884 58.7933 23.4618 59.2267 24.2484 59.92C25.0484 60.6 25.4484 61.5333 25.4484 62.72C25.4484 64.28 24.7551 65.42 23.3684 66.14C21.9951 66.8467 20.2484 67.2 18.1284 67.2C13.3151 67.2 10.9884 65.44 11.1484 61.92H14.5884C14.5351 62.6933 14.8018 63.2667 15.3884 63.64C15.9751 64.0133 16.8884 64.2 18.1284 64.2C20.7418 64.2 22.0484 63.7867 22.0484 62.96C22.0484 62.52 21.8351 62.1867 21.4084 61.96C20.9951 61.7333 20.3151 61.58 19.3684 61.5L15.9484 61.2C12.5618 60.9067 10.8684 59.5867 10.8684 57.24C10.8684 55.7067 11.5551 54.5867 12.9284 53.88C14.3018 53.16 16.0351 52.8 18.1284 52.8C20.2751 52.8 21.9684 53.1933 23.2084 53.98C24.4618 54.7533 25.0484 56.0267 24.9684 57.8H21.5484C21.6151 57.16 21.3551 56.6667 20.7684 56.32C20.1818 55.9733 19.3018 55.8 18.1284 55.8C15.5551 55.8 14.2684 56.22 14.2684 57.06Z" fill="black"/>
<path d="M14.2684 57.06C14.2684 57.3933 14.4418 57.6533 14.7884 57.84C15.1351 58.0133 15.6951 58.14 16.4684 58.22L20.4284 58.62C22.1884 58.7933 23.4618 59.2267 24.2484 59.92C25.0484 60.6 25.4484 61.5333 25.4484 62.72C25.4484 64.28 24.7551 65.42 23.3684 66.14C21.9951 66.8467 20.2484 67.2 18.1284 67.2C13.3151 67.2 10.9884 65.44 11.1484 61.92H14.5884C14.5351 62.6933 14.8018 63.2667 15.3884 63.64C15.9751 64.0133 16.8884 64.2 18.1284 64.2C20.7418 64.2 22.0484 63.7867 22.0484 62.96C22.0484 62.52 21.8351 62.1867 21.4084 61.96C20.9951 61.7333 20.3151 61.58 19.3684 61.5L15.9484 61.2C12.5618 60.9067 10.8684 59.5867 10.8684 57.24C10.8684 55.7067 11.5551 54.5867 12.9284 53.88C14.3018 53.16 16.0351 52.8 18.1284 52.8C20.2751 52.8 21.9684 53.1933 23.2084 53.98C24.4618 54.7533 25.0484 56.0267 24.9684 57.8H21.5484C21.6151 57.16 21.3551 56.6667 20.7684 56.32C20.1818 55.9733 19.3018 55.8 18.1284 55.8C15.5551 55.8 14.2684 56.22 14.2684 57.06Z" fill="black"/>
</g>
<defs>
<clipPath id="clip0_532_2209">
<rect width="36" height="78" fill="white"/>
</clipPath>
</defs>
</svg>
