<svg width="64" height="64" viewBox="0 0 64 64" fill="none" xmlns="http://www.w3.org/2000/svg">
<path d="M56 0C60.4183 0 64 3.58172 64 8V56C64 60.4183 60.4183 64 56 64H8C3.58172 64 0 60.4183 0 56V8C0 3.58172 3.58172 0 8 0H56ZM18 11C14.6863 11 12 13.6863 12 17V44.0967C12 46.5737 13.5014 48.6994 15.6436 49.6152C16.6154 51.6186 18.6688 53 21.0449 53H27.626C30.2622 52.9998 32.4994 51.2984 33.3047 48.9346C33.6721 49.2044 34.0707 49.4338 34.4951 49.6152C35.467 51.6186 37.5205 52.9999 39.8965 53H46.4775C49.791 52.9998 52.4773 50.3134 52.4775 47V19.9033C52.4775 17.4259 50.9757 15.2994 48.833 14.3838C47.861 12.381 45.8083 11 43.4326 11H36.8516C34.2154 11.0001 31.9772 12.7007 31.1719 15.0645C30.8045 14.7948 30.4058 14.5652 29.9814 14.3838C29.0094 12.3811 26.9566 11.0001 24.5811 11H18Z" fill="black"/>
<path d="M23.2857 15V45H16V15H23.2857ZM44.1571 15V45H36.8714V15H44.1571ZM39.6571 25.9286V32.3571H20.7571V25.9286H39.6571Z" fill="black"/>
</svg>