<svg width="64" height="64" viewBox="0 0 64 64" fill="none" xmlns="http://www.w3.org/2000/svg">
<path d="M56 0C60.4183 0 64 3.58172 64 8V56C64 60.4183 60.4183 64 56 64H8C3.58172 64 0 60.4183 0 56V8C0 3.58172 3.58172 0 8 0H56ZM26.5986 41.5596V49H35.7188V41.5596H26.5986ZM32.4551 14.9199C27.9751 14.9199 24.3109 15.864 21.4629 17.752C18.615 19.64 17.2875 22.696 17.4795 26.9199H25.6875C25.5275 25.4479 26.0713 24.28 27.3193 23.416C28.5993 22.5521 30.3112 22.1201 32.4551 22.1201C34.3111 22.1201 35.7514 22.3598 36.7754 22.8398C37.8311 23.2878 38.3592 23.9439 38.3594 24.8076C38.3594 25.3514 38.2631 25.7677 38.0713 26.0557C37.8793 26.3437 37.5108 26.6478 36.9668 26.9678C36.4548 27.2557 35.5431 27.6878 34.2314 28.2637C32.0876 29.1916 30.5035 30.1041 29.4795 31C28.4555 31.864 27.7987 32.7763 27.5107 33.7363C27.2228 34.6963 27.0791 35.9605 27.0791 37.5283H35.2871C35.2871 36.9524 35.5913 36.4084 36.1992 35.8965C36.8072 35.3525 37.9911 34.6323 39.751 33.7363C41.4148 32.8724 42.7107 32.0719 43.6387 31.3359C44.5987 30.5679 45.3188 29.6556 45.7988 28.5996C46.2787 27.5437 46.5195 26.216 46.5195 24.6162C46.5195 22.1842 45.7835 20.2476 44.3115 18.8076C42.8396 17.3677 41.0473 16.3602 38.9355 15.7842C36.8236 15.2082 34.6631 14.9199 32.4551 14.9199Z" fill="black"/>
</svg>
